<svg width="411" height="84" viewBox="0 0 411 84" fill="none" xmlns="http://www.w3.org/2000/svg">
<path d="M53.8426 74.7553L53.8435 74.7545C58.2823 70.8706 61.1262 65.6576 62.4578 59.2798C63.1821 55.8106 60.3899 52.9414 57.1758 52.9414H53.6925C50.9412 52.9414 48.7643 54.9382 48.2083 57.4202C47.2564 61.6688 45.7452 64.3546 43.9408 65.8873C41.787 67.7117 38.4637 68.8105 33.5938 68.8105C28.5744 68.8105 24.8429 66.8965 22.1096 63.0312C19.28 59.0298 17.7344 53.4567 17.7344 46.0664V39.1816C17.7344 31.3172 19.3687 25.6377 22.2949 21.8084C25.2016 18.0461 29.1475 16.1445 34.4238 16.1445C38.8777 16.1445 41.9822 17.2953 44.0887 19.2749L44.0942 19.28L44.0997 19.2851C45.9011 20.9579 47.3476 23.6674 48.2235 27.7261C48.7632 30.227 50.9457 32.2578 53.7228 32.2578H57.2305C60.4111 32.2578 63.186 29.4486 62.5301 26.0077C61.3196 19.6574 58.5982 14.4172 54.285 10.4416C49.1709 5.69494 42.4622 3.42969 34.4238 3.42969C28.3178 3.42969 22.8371 4.88268 18.067 7.8579C13.292 10.8035 9.62976 15.0289 7.06713 20.435L7.06709 20.435L7.06147 20.447C4.53557 25.8496 3.31055 32.0336 3.31055 38.9375V45.7734C3.31055 56.2813 5.94338 64.9614 11.4626 71.5489L11.4677 71.555C17.0555 78.1816 24.514 81.4766 33.5938 81.4766C41.7878 81.4766 48.6254 79.3158 53.8426 74.7553ZM131.838 64.041L131.84 64.0357C134.357 58.442 135.576 51.9919 135.576 44.748V40.2559C135.576 33.045 134.358 26.6134 131.843 21.0224C129.322 15.3868 125.664 10.9949 120.839 7.96768C116.067 4.92032 110.579 3.42969 104.463 3.42969C98.4261 3.42969 92.97 4.94564 88.1732 8.02365C83.3894 11.0815 79.7369 15.4822 77.186 21.1082C74.6376 26.7286 73.3984 33.1299 73.3984 40.2559V45.3828V45.3949L73.3986 45.4071C73.4665 52.4021 74.7415 58.6726 77.2936 64.1615L77.2977 64.1702L77.3018 64.1789C79.8921 69.6396 83.5602 73.9385 88.3217 76.9816L88.333 76.9887C93.099 79.9988 98.5348 81.4766 104.561 81.4766C110.704 81.4766 116.195 80.0047 120.942 76.9842C125.695 73.9594 129.318 69.6064 131.838 64.041ZM116.67 22.2711L116.675 22.2781C119.607 26.1682 121.25 32.0125 121.25 40.1582V45.4166C121.154 53.358 119.503 59.0842 116.626 62.9223C113.83 66.6208 109.919 68.5176 104.561 68.5176C99.2973 68.5176 95.3231 66.5391 92.3661 62.5547C89.3678 58.4384 87.7246 52.5942 87.7246 44.748V39.5391C87.8204 31.8537 89.4927 26.1971 92.445 22.279C95.3662 18.4126 99.2818 16.4863 104.463 16.4863C109.833 16.4863 113.798 18.4318 116.67 22.2711ZM211.017 50.241L211.016 50.2777V50.3145V75C211.016 78.0376 213.478 80.5 216.516 80.5H219.891C222.928 80.5 225.391 78.0376 225.391 75V9.90625C225.391 6.86868 222.928 4.40625 219.891 4.40625H212.762C210.514 4.40625 208.493 5.77408 207.657 7.86064L187.954 57.034C187.899 57.173 187.831 57.2351 187.774 57.2713C187.705 57.3153 187.607 57.348 187.49 57.348C187.374 57.348 187.275 57.3153 187.206 57.2713C187.15 57.2351 187.082 57.173 187.026 57.034L167.324 7.86064C166.488 5.77408 164.466 4.40625 162.218 4.40625H155.139C152.101 4.40625 149.639 6.86869 149.639 9.90625V75C149.639 78.0376 152.101 80.5 155.139 80.5H158.514C161.551 80.5 164.014 78.0376 164.014 75V50.3145V50.2755L164.012 50.2365L163.607 37.2567C163.601 37.0344 163.662 36.9542 163.692 36.9191C163.743 36.8591 163.848 36.7849 164.004 36.7519C164.16 36.7189 164.286 36.7445 164.357 36.7787C164.398 36.7986 164.487 36.847 164.571 37.0532L180.801 77.0673C181.642 79.1424 183.658 80.5 185.898 80.5H189.034C191.273 80.5 193.289 79.142 194.131 77.0665L210.442 36.8347C210.525 36.6289 210.614 36.5804 210.656 36.5604C210.727 36.5262 210.852 36.5005 211.008 36.5333C211.164 36.5661 211.269 36.6401 211.32 36.7001C211.35 36.7352 211.412 36.8153 211.405 37.0373L211.017 50.241ZM396.278 78.7635L396.287 78.7599C400.661 77.0167 404.228 74.4264 406.893 70.9585C407.639 69.9883 407.969 68.8342 407.969 67.7303V45.5996C407.969 42.562 405.506 40.0996 402.469 40.0996H382.688C379.65 40.0996 377.188 42.562 377.188 45.5996V47.2168C377.188 50.2544 379.65 52.7168 382.688 52.7168H393.143C393.419 52.7168 393.643 52.9407 393.643 53.2168V65.0044C393.643 65.0822 393.628 65.1352 393.618 65.1606C393.616 65.1637 393.615 65.1663 393.614 65.1682C392.342 66.3145 390.784 67.1802 388.889 67.7417C386.537 68.4387 383.71 68.8105 380.371 68.8105C374.884 68.8105 370.698 66.7912 367.551 62.7468C364.344 58.5919 362.607 52.8416 362.607 45.2363L362.607 39.4355C362.607 39.4329 362.607 39.4304 362.607 39.4278C362.64 31.329 364.224 25.5576 367.006 21.7636C369.718 18.0772 373.68 16.1445 379.297 16.1445C383.219 16.1445 386.165 17.0314 388.336 18.5947C390.493 20.1476 392.128 22.5427 393.122 26.0175C393.786 28.337 395.884 30.2559 398.585 30.2559H402.003C405.265 30.2559 408.113 27.2819 407.231 23.7492C405.787 17.9666 402.988 13.246 398.777 9.72881C393.696 5.4528 387.104 3.42969 379.248 3.42969C369.603 3.42969 361.821 6.60022 356.25 13.1475L356.245 13.1537C350.758 19.6448 348.184 28.5973 348.184 39.6699V45.8711V45.8834L348.184 45.8957C348.252 52.8068 349.565 58.9946 352.196 64.3974L352.202 64.4091C354.872 69.8196 358.669 74.0625 363.593 77.0594L363.604 77.0662C368.525 80.0262 374.123 81.4766 380.322 81.4766C386.292 81.4766 391.628 80.5952 396.278 78.7635ZM248.127 80.5H251.502C254.54 80.5 257.002 78.0376 257.002 75V9.90625C257.002 6.86868 254.54 4.40625 251.502 4.40625H248.127C245.089 4.40625 242.627 6.86869 242.627 9.90625V75C242.627 78.0376 245.089 80.5 248.127 80.5ZM323.528 80.5H328.328C331.366 80.5 333.828 78.0376 333.828 75V9.90625C333.828 6.86868 331.366 4.40625 328.328 4.40625H325.002C321.964 4.40625 319.502 6.86869 319.502 9.90625V51.8437C319.502 52.0221 319.452 52.1048 319.415 52.1521C319.364 52.2161 319.273 52.2849 319.144 52.323C319.016 52.3611 318.902 52.3532 318.825 52.3275C318.767 52.3084 318.681 52.2663 318.583 52.1169L289.095 6.90178C288.08 5.34496 286.347 4.40625 284.488 4.40625H279.689C276.652 4.40625 274.189 6.86869 274.189 9.90625V75C274.189 78.0376 276.652 80.5 279.689 80.5H283.113C286.151 80.5 288.613 78.0376 288.613 75V33.2921C288.613 33.1139 288.663 33.0312 288.701 32.9838C288.752 32.9198 288.843 32.851 288.971 32.8129C289.099 32.7748 289.212 32.7826 289.29 32.8083C289.348 32.8273 289.434 32.8695 289.532 33.0186L318.923 78.0081C319.939 79.5628 321.671 80.5 323.528 80.5Z" stroke="#FF7D7D" stroke-width="5"/>
</svg>
