<?xml version="1.0" encoding="utf-8"?>
<svg width="14px" height="25px" viewbox="0 0 14 25" version="1.1" xmlns:xlink="http://www.w3.org/1999/xlink" xmlns="http://www.w3.org/2000/svg">
  <path d="M8.93392 24.6203C8.93392 24.6203 8.93392 14.3388 8.93392 14.3388L13.2752 14.3388L13.9563 9.92825L8.93392 9.92825L8.93392 7.5172C8.93392 5.68417 9.53107 4.05725 11.2466 4.05725L14 4.05725L14 0.207597C13.5152 0.142332 12.492 0 10.5583 0C6.51928 0 4.15193 2.13326 4.15193 6.99275L4.15193 9.92825L0 9.92825L0 14.3388L4.15193 14.3388C4.15193 14.3388 4.15193 24.5839 4.15193 24.5839C4.10465 24.7466 8.91341 24.5124 8.93392 24.6203Z" id="Shape" fill="#141CFC" fill-rule="evenodd" stroke="none" />
</svg>