<?xml version="1.0" encoding="utf-8"?>
<svg width="100px" height="100px" viewbox="0 0 100 100" version="1.1" xmlns:xlink="http://www.w3.org/1999/xlink" xmlns="http://www.w3.org/2000/svg">
  <defs>
    <filter id="filter_1">
      <feColorMatrix in="SourceGraphic" type="matrix" values="0 0 0 0 0 0 0 0 0 0 0 0 0 0 0 0 0 0 1 0" />
    </filter>
    <path d="M0 0L100 0L100 100L0 100L0 0Z" id="path_1" />
    <clipPath id="mask_1">
      <use xlink:href="#path_1" />
    </clipPath>
  </defs>
  <g id="Github-icon" filter="url(#filter_1)">
    <path d="M0 0L100 0L100 100L0 100L0 0Z" id="Background" fill="none" fill-rule="evenodd" stroke="none" />
    <g clip-path="url(#mask_1)">
      <path d="M40.625 0C18.1885 0 0 18.1641 0 40.5518C0 58.4717 11.6455 73.6816 27.7832 79.0527C29.8096 79.4189 31.25 77.3438 31.25 75.7813C31.25 74.8291 31.2744 73.6816 31.25 70.3125C19.9463 72.7539 16.4063 64.8438 16.4063 64.8438C14.5508 60.1563 12.3047 58.8135 12.3047 58.8135C8.61816 56.2988 12.5732 56.3721 12.5732 56.3721C16.6504 56.6406 18.75 60.1563 18.75 60.1563C21.875 65.625 28.9307 65.0879 31.25 64.0625C31.25 61.5723 31.5186 59.7656 32.2022 58.6182C19.4336 56.3721 12.4756 48.999 12.5 38.7939C12.5244 32.7637 14.5996 28.0762 17.9688 24.6094C16.5039 22.7539 15.5029 16.4063 18.5059 12.5C26.0498 12.5 30.542 17.9443 30.542 17.9443C30.542 17.9443 34.082 16.4063 40.6006 16.4063C47.1436 16.4063 50.6592 17.8711 50.6592 17.8711C50.6592 17.8711 55.1758 12.5 62.7197 12.5C65.7227 16.4063 64.7217 22.7539 63.5498 24.4873C66.7725 27.8809 68.75 32.5684 68.75 38.7939C68.75 48.999 61.8164 56.3721 49.0723 58.5938C49.8779 59.8145 50 61.5234 50 64.0625C50 69.4824 50 74.4385 50 75.7813C50 77.3438 51.416 79.4434 53.4912 79.0527C69.6289 73.6572 81.25 58.4717 81.25 40.5518C81.25 18.1641 63.0615 0 40.625 0L40.625 0Z" transform="translate(6.25 6.25)" id="Shape" fill="#FFFFFF" fill-rule="evenodd" stroke="none" />
    </g>
  </g>
</svg>