<?xml version="1.0" encoding="utf-8"?>
<svg width="100px" height="100px" viewbox="0 0 100 100" version="1.1" xmlns:xlink="http://www.w3.org/1999/xlink" xmlns="http://www.w3.org/2000/svg">
  <defs>
    <filter id="filter_1">
      <feColorMatrix in="SourceGraphic" type="matrix" values="0 0 0 0 0.9098039 0 0 0 0 0.105882354 0 0 0 0 0.11764706 0 0 0 1 0" />
    </filter>
    <path d="M0 0L100 0L100 100L0 100L0 0Z" id="path_1" />
    <clipPath id="mask_1">
      <use xlink:href="#path_1" />
    </clipPath>
  </defs>
  <g id="Gulp-icon" filter="url(#filter_1)">
    <path d="M0 0L100 0L100 100L0 100L0 0Z" id="Background" fill="none" fill-rule="evenodd" stroke="none" />
    <g clip-path="url(#mask_1)">
      <path d="M41.1072 0.000630505C40.9798 0.00556205 40.8806 0.0411088 40.8142 0.10439L29.2053 13.8922L26.8372 22.0343C25.2278 21.9812 23.5659 21.9611 21.8628 21.9611C9.79717 21.9611 0 23.2393 0 24.8236C0 28.6049 43.7195 28.6049 43.7195 24.8236C43.7195 23.6518 38.4856 22.6618 30.9387 22.193L32.8125 15.4914L43.6707 2.42983L43.689 2.41152C43.9327 2.15839 43.4569 1.39868 42.6819 0.733052C42.1006 0.23149 41.4894 -0.0141645 41.1072 0.000630505L41.1072 0.000630505ZM25.946 25.2387L25.9033 25.6072C25.8846 25.6521 25.885 25.7112 25.885 25.7651C25.885 26.4389 26.8315 26.9934 27.9846 26.9934C29.1377 26.9934 30.0903 26.4389 30.0903 25.7651L30.127 25.344C30.4301 25.6584 30.5969 26.0186 30.5969 26.4319C30.5969 27.5189 29.4257 28.407 27.9663 28.362C26.5476 28.362 25.3723 27.5365 25.3723 26.4494C25.3723 25.9822 25.6054 25.5531 25.946 25.2387L25.946 25.2387ZM43.4753 26.3129C37.691 29.3973 6.09311 29.4181 0.286865 26.3556L2.85645 48.9569C3.97207 45.3538 6.79356 40.4893 10.4248 39.0143C11.6154 38.5268 12.8244 38.5291 13.9587 39.1791C14.9431 39.7197 15.7754 40.8531 15.8691 41.3031C16.0973 42.475 15.4926 42.9389 15.0208 42.9389C14.452 42.9389 14.0173 42.1141 13.7329 41.6266C12.9579 40.311 11.7847 40.2544 10.5347 41.12C9.22842 42.02 8.09356 43.5336 7.29981 44.8493C6.33418 46.4336 5.51992 48.1805 5.0293 49.9274C4.74492 50.9368 4.48506 52.5539 4.91943 53.5102C5.11006 53.907 5.39092 54.1571 5.84717 54.1571C6.79404 54.1571 8.16929 52.9695 8.83179 52.3383C9.68179 51.5289 10.7782 50.2668 11.1938 49.4574L12.1826 46.6681C12.6732 45.4431 14.0503 45.6587 14.0503 46.6681C14.0503 48.5056 13.3549 49.1181 12.1643 52.9181C11.0674 56.4306 10.7239 57.569 10.7239 57.569C10.5926 58.0721 10.0806 58.9179 9.53369 58.9179C9.30557 58.9179 9.13916 58.8419 9.04541 58.6981C8.85479 58.445 8.87407 57.7502 8.89282 57.569C8.93032 56.994 10.0816 53.5686 10.2722 53.028C9.89409 53.4249 9.4981 53.8244 9.06372 54.2182C8.04185 55.1369 6.39878 56.3422 4.99878 56.3422C4.35503 56.3422 3.94302 56.1776 3.54614 55.9088L4.98047 70.246C5.35859 71.146 12.3958 73.3283 21.6614 73.3283C30.9458 73.3283 37.9768 71.1304 38.3362 70.246L40.3992 53.2111C39.321 54.1486 38.0756 55.3033 36.6943 55.8783C35.6725 56.2939 33.4045 56.5593 33.4045 54.8468C33.4045 53.9093 35.1267 52.1834 36.1267 50.9772C36.3923 50.6709 37.0117 49.9153 37.0117 49.5185C37.0117 48.9966 35.8804 49.1171 34.8022 49.964C34.196 50.4515 33.6262 51.1032 33.1543 51.7157C32.3418 52.797 31.9084 53.73 31.5491 54.505C30.3772 57.0613 30.7748 56.0537 29.8279 58.4662C28.881 60.8631 29.0358 60.5901 28.8452 60.987C28.6765 61.3307 28.429 61.6206 28.0884 61.7987C27.729 61.98 27.2379 61.9594 26.9348 61.7438C26.7661 61.6344 26.6846 61.4004 26.6846 61.0785C26.6846 60.916 26.7081 60.7527 26.7456 60.5902C27.03 59.4902 28.2212 57.3322 29.5837 54.4135C29.8869 53.7478 29.7709 53.9453 29.7302 53.9984C28.5584 55.0797 27.6674 55.603 27.0081 55.8905C25.9112 56.3593 24.5488 56.3583 24.2676 55.152C24.2488 55.0801 24.2497 55.0042 24.231 54.9323C21.9997 56.5885 19.6373 57.0392 20.4529 53.4735C19.5841 54.9517 18.0672 56.1591 16.2109 56.1591C15.4359 56.1591 14.8687 55.9092 14.5874 55.2436C14.153 54.2529 14.8322 52.5559 15.4541 50.9528C15.776 50.1434 16.2155 49.1697 16.803 48.0353C17.1061 47.4228 17.5936 47.061 18.2373 47.2235C18.3498 47.261 18.4487 47.2986 18.5425 47.3517C19.0331 47.6767 18.8443 48.1582 18.5974 48.6457C17.8787 49.9957 17.2552 50.987 16.8396 52.3932C16.6709 52.987 16.4579 54.0167 17.1204 54.0167C17.5735 54.0167 18.0078 53.8709 18.4265 53.5834C19.2953 52.9709 19.9949 52.0542 20.5261 51.1542C20.9042 50.5073 21.36 49.6605 21.5881 48.9386C21.6819 48.6324 21.7987 48.3438 21.9299 48.0719C22.1393 47.6219 22.4188 47.1564 22.9126 47.1564C23.1595 47.1564 23.3637 47.2468 23.5168 47.4249C23.8387 47.8218 23.7681 48.2296 23.5962 48.664C23.2181 49.6733 22.7088 50.5761 22.29 51.673C22.0432 52.3042 21.7773 53.1131 21.7773 53.7787C21.7773 54.3912 22.4777 54.2455 23.0652 53.9923C23.5183 53.7955 23.9718 53.4929 24.353 53.1867C24.5812 52.3054 24.5207 52.5003 29.3457 40.9003C29.5926 40.3065 30.0461 40.0519 30.4993 40.0519C30.7274 40.0519 30.9129 40.1283 31.1035 40.2533C31.4254 40.4877 31.4301 40.986 31.2988 41.3642C31.1676 41.7079 31.1818 41.6 30.4443 43.2562C29.46 45.4344 28.8199 47.0058 27.948 49.0058C27.5886 49.8339 26.4937 52.4094 26.3062 53.0219C26.1937 53.4188 26.0579 54.0656 26.4954 54.0656C27.5172 54.0656 30.1467 51.7047 30.8655 51.0016C30.903 50.9485 30.9614 50.9292 31.0364 50.8917C31.1489 50.548 31.26 50.228 31.3538 49.903C31.6194 49.2186 31.8671 48.4207 32.3608 47.8644C32.5108 47.6832 32.6799 47.5775 32.8674 47.5775C33.3956 47.5775 33.6609 47.7915 33.6609 48.2978C33.6609 48.4946 33.5315 49.2178 33.4534 49.4147C33.719 49.1459 33.9986 48.8778 34.3018 48.609C37.1393 46.1059 39.1602 47.3832 39.1602 48.6457C39.1602 49.9769 37.479 51.829 36.554 52.8571C36.2508 53.2008 35.6267 53.8294 35.6079 54.0106C35.6079 54.245 35.7761 54.3402 36.0229 54.3402C36.4011 54.3402 37.2335 53.7075 37.5366 53.4918C38.4835 52.7887 39.7645 51.709 40.6738 50.9528L43.4753 26.3129L43.4753 26.3129ZM6.03028 71.9733L8.8501 76.5509L9.94873 90.8515C9.94873 92.4546 15.2999 93.7506 21.8811 93.7506C28.4623 93.7506 33.8135 92.4546 33.8135 90.8515L34.6863 76.4044L37.3474 71.9733C29.8568 74.9827 13.824 75.0889 6.03028 71.9733L6.03028 71.9733Z" transform="translate(28.125 3.1243591)" id="Shape" fill="#FFFFFF" fill-rule="evenodd" stroke="none" />
    </g>
  </g>
</svg>