<?xml version="1.0" encoding="utf-8"?>
<svg width="100px" height="100px" viewbox="0 0 100 100" version="1.1" xmlns:xlink="http://www.w3.org/1999/xlink" xmlns="http://www.w3.org/2000/svg">
  <defs>
    <path d="M0 0L100 0L100 100L0 100L0 0Z" id="path_1" />
    <clipPath id="mask_1">
      <use xlink:href="#path_1" />
    </clipPath>
  </defs>
  <g id="Javascript-icon">
    <path d="M0 0L100 0L100 100L0 100L0 0Z" id="Background" fill="none" fill-rule="evenodd" stroke="none" />
    <g clip-path="url(#mask_1)">
      <path d="M0 75L0 0L75 0L75 75L0 75L0 75Z" transform="translate(12.5 12.5)" id="Shape" fill="#FFD600" fill-rule="evenodd" stroke="none" />
      <path d="M29.5938 22.8062C31.0354 25.1479 32.6021 27.3917 35.9208 27.3917C38.7083 27.3917 40.1708 26.0062 40.1708 24.0896C40.1708 21.7958 38.6583 20.9812 35.5917 19.6458L33.9104 18.9292C29.0583 16.8708 25.8312 14.2917 25.8312 8.84375C25.8312 3.82292 29.675 0.00208616 35.6812 0.00208616C39.9583 0.00208616 43.0313 1.48334 45.2479 5.3625L40.0104 8.71042C38.8583 6.65208 37.6125 5.84167 35.6812 5.84167C33.7104 5.84167 32.4625 7.08542 32.4625 8.71042C32.4625 10.7188 33.7125 11.5313 36.5979 12.775L38.2792 13.4917C43.9979 15.9271 47.2229 18.4146 47.2229 24.0062C47.2229 30.0313 42.4646 33.3333 36.0771 33.3333C29.8292 33.3333 26.2813 30.1979 24.3063 26.3167L29.5938 22.8062L29.5938 22.8062ZM5.45625 22.9771C6.51042 24.8646 8.1125 26.3167 10.4167 26.3167C12.6208 26.3167 13.8896 25.4458 13.8896 22.0604L13.8896 0L20.8333 0L20.8333 23.1271C20.8333 30.1417 16.7646 33.3333 10.8229 33.3333C5.45417 33.3333 1.57917 29.6958 0 26.3167L5.45625 22.9771L5.45625 22.9771Z" transform="translate(31.943787 45.833344)" id="Shape" fill="#000001" fill-rule="evenodd" stroke="none" />
    </g>
  </g>
</svg>