<?xml version="1.0" encoding="utf-8"?>
<svg width="100px" height="100px" viewbox="0 0 100 100" version="1.1" xmlns:xlink="http://www.w3.org/1999/xlink" xmlns="http://www.w3.org/2000/svg">
  <defs>
    <path d="M0 0L100 0L100 100L0 100L0 0Z" id="path_1" />
    <clipPath id="mask_1">
      <use xlink:href="#path_1" />
    </clipPath>
  </defs>
  <g id="Php-Logo-icon">
    <path d="M0 0L100 0L100 100L0 100L0 0Z" id="Background" fill="none" fill-rule="evenodd" stroke="none" />
    <g clip-path="url(#mask_1)">
      <path d="M48.3333 50C21.6833 50 0 38.7867 0 25C0 11.2133 21.6833 0 48.3333 0C74.9833 0 96.6667 11.2133 96.6667 25C96.6667 38.7867 74.9833 50 48.3333 50L48.3333 50Z" transform="translate(1.666626 25)" id="Shape" fill="#DCD5F2" fill-rule="evenodd" stroke="none" />
      <path d="M50 3.33333C75.2967 3.33333 96.6667 14.02 96.6667 26.6667C96.6667 39.3133 75.2967 50 50 50C24.7033 50 3.33333 39.3133 3.33333 26.6667C3.33333 14.02 24.7033 3.33333 50 3.33333M50 0C22.3867 0 0 11.94 0 26.6667C0 41.3933 22.3867 53.3333 50 53.3333C77.6133 53.3333 100 41.3933 100 26.6667C100 11.94 77.6133 0 50 0L50 0L50 0Z" transform="translate(0 23.333374)" id="Shape" fill="#8B75A1" fill-rule="evenodd" stroke="none" />
      <path d="M14.7233 3.33333C16.7167 3.33333 18.4433 4.01 19.3367 5.14333C19.9767 5.95667 20.1533 6.99334 19.86 8.23334C18.9667 11.9967 17.3867 13.3333 10.2967 13.3333L5.26667 13.3333L7.14333 3.33333L14.7233 3.33333M14.7233 0L4.37667 0L0 23.3333L3.33333 23.3333L4.65333 16.6667L10.2967 16.6667C17.6267 16.6667 21.6133 15.2767 23.1033 9.00334C24.3867 3.61333 20.13 0 14.7233 0L14.7233 0L14.7233 0ZM58.0567 3.33333C60.05 3.33333 61.7767 4.01 62.67 5.14333C63.31 5.95667 63.4867 6.99334 63.1933 8.23334C62.3 11.9967 60.72 13.3333 53.63 13.3333L48.6 13.3333L50.4767 3.33333L58.0567 3.33333M58.0567 0L47.71 0L43.3333 23.3333L46.6667 23.3333L47.9867 16.6667L53.63 16.6667C60.96 16.6667 64.9467 15.2767 66.4367 9.00334C67.72 3.61333 63.4633 0 58.0567 0L58.0567 0L58.0567 0Z" transform="translate(16.666687 40.00003)" id="Shape" fill="#36404D" fill-rule="evenodd" stroke="none" />
      <g id="Group" transform="translate(40 33.333344)">
        <path d="M18.84 8.08C17.7433 7.07333 15.8067 6.66667 12.9167 6.66667L6.75667 6.66667L8.26 0L4.87 0L0 23.3333L3.38667 23.3333L6.19 10L6.76 10L12.92 10C15.9533 10 16.5667 10.5167 16.5733 10.5167C16.6367 10.6167 16.7667 11.1633 16.5467 12.29L14.2933 23.3333L17.78 23.3333L19.8133 12.93C20.25 10.7067 19.92 9.07333 18.84 8.08L18.84 8.08Z" id="Shape" fill="#36404D" fill-rule="evenodd" stroke="none" />
      </g>
    </g>
  </g>
</svg>