<svg width="281" height="84" viewBox="0 0 281 84" fill="none" xmlns="http://www.w3.org/2000/svg">
<path d="M11.0222 38.7246L11.0137 38.7168C6.86167 34.8613 4.74609 30.0322 4.74609 24.3848C4.74609 18.0113 7.33189 12.6874 12.3525 8.58268L11.0222 38.7246ZM11.0222 38.7246L11.0307 38.7324M11.0222 38.7246L11.0307 38.7324M11.0307 38.7324C15.1237 42.4632 21.4112 45.4288 29.6003 47.783C35.9763 49.6279 39.995 51.4101 42.0285 53.0098L42.0367 53.0162L42.0448 53.0226C43.7896 54.3719 44.7363 56.279 44.7363 59.1016C44.7363 61.8508 43.746 63.8495 41.7617 65.3683C39.7289 66.9243 36.5601 67.8809 31.9043 67.8809C26.9853 67.8809 23.3338 66.7382 20.7035 64.7031C18.7736 63.1674 17.6193 61.2778 17.1569 58.9584C16.6625 56.4782 14.5665 53.9648 11.4238 53.9648H8C5.08236 53.9648 2.24602 56.4166 2.73512 59.8115C3.2157 63.1474 4.43195 66.214 6.36989 68.9825L6.37468 68.9893L6.37951 68.9961C8.9889 72.6713 12.64 75.5061 17.2138 77.5468L17.2212 77.55L17.2285 77.5533C21.7946 79.5553 26.6959 80.5469 31.9043 80.5469C39.7947 80.5469 46.3919 78.7349 51.4448 74.8537L51.4538 74.8468C56.5663 70.8827 59.1602 65.5261 59.1602 59.0039C59.1602 55.0083 58.257 51.4049 56.359 48.288C54.5047 45.1893 51.6956 42.5954 48.0829 40.4537C44.4903 38.2724 39.63 36.3614 33.6055 34.6732C27.8067 33.0391 24.0306 31.3291 21.9597 29.6729C20.0419 28.0822 19.2188 26.3094 19.2188 24.2383C19.2188 21.3002 20.221 19.2477 22.1196 17.7577L22.1229 17.7551C24.1413 16.1656 27.1371 15.2148 31.416 15.2148C35.9968 15.2148 39.1769 16.3488 41.311 18.2796L41.3171 18.2851M11.0307 38.7324L41.3171 18.2851M41.3171 18.2851L41.3232 18.2906M41.3171 18.2851L41.3232 18.2906M41.3232 18.2906C42.9406 19.7347 43.9662 21.5891 44.3815 23.9753C44.8254 26.5263 46.9551 29.0332 50.0898 29.0332H53.5137C56.4324 29.0332 59.2671 26.5801 58.7762 23.1853C58.319 20.0233 57.2039 17.0584 55.4528 14.3084C53.1012 10.5636 49.7733 7.66209 45.5597 5.59025C41.3589 3.50863 36.6251 2.5 31.416 2.5C23.8168 2.5 17.3888 4.4594 12.3532 8.58206L41.3232 18.2906ZM200.922 63.106L200.92 63.1114C198.4 68.6767 194.777 73.0297 190.024 76.0545C185.277 79.0751 179.786 80.5469 173.643 80.5469C167.617 80.5469 162.181 79.0691 157.415 76.059L157.404 76.0519C152.642 73.0088 148.974 68.7099 146.384 63.2492L146.38 63.2405L146.376 63.2318C143.824 57.743 142.548 51.4724 142.481 44.4774L142.48 44.4653V44.4531V39.3262C142.48 32.2002 143.72 25.7989 146.268 20.1786C148.819 14.5533 152.47 10.1531 157.253 7.09525L200.922 63.106ZM200.922 63.106C203.44 57.5123 204.658 51.0622 204.658 43.8184M200.922 63.106L204.658 43.8184M204.658 43.8184V39.3262C204.658 32.1141 203.439 25.6815 200.923 20.0898M204.658 43.8184L157.255 7.09397C162.052 4.01596 167.508 2.5 173.545 2.5C179.661 2.5 185.149 3.99064 189.921 7.03799C194.745 10.0647 198.403 14.4556 200.923 20.0898M200.923 20.0898C200.924 20.0908 200.924 20.0917 200.925 20.0927L198.643 21.1133M200.923 20.0898C200.923 20.089 200.923 20.0882 200.922 20.0874L198.643 21.1133M198.643 21.1133C200.986 26.3216 202.158 32.3926 202.158 39.3262V43.8184C202.158 50.7845 200.986 56.8717 198.643 62.0801M198.643 21.1133C196.299 15.8724 192.946 11.8848 188.584 9.15039C184.255 6.38346 179.242 5 173.545 5L198.643 62.0801M198.643 62.0801C196.299 67.2559 192.979 71.2109 188.682 73.9453C184.385 76.6797 179.372 78.0469 173.643 78.0469C168.044 78.0469 163.079 76.6797 158.75 73.9453L198.643 62.0801ZM127.17 63.1114L127.172 63.106C129.69 57.5123 130.908 51.0622 130.908 43.8184V39.3262C130.908 32.1153 129.69 25.6837 127.175 20.0927C124.655 14.4571 120.996 10.0652 116.171 7.03799C111.399 3.99064 105.911 2.5 99.7949 2.5C93.7581 2.5 88.302 4.01596 83.5052 7.09396C78.7214 10.1518 75.069 14.5525 72.518 20.1786C69.9697 25.7989 68.7305 32.2002 68.7305 39.3262V44.4531V44.4653L68.7306 44.4774C68.7985 51.4724 70.0735 57.743 72.6256 63.2318L72.6297 63.2405L72.6338 63.2492C75.2241 68.7099 78.8923 73.0088 83.6537 76.0519L83.665 76.059C88.431 79.0691 93.8669 80.5469 99.8926 80.5469C106.036 80.5469 111.527 79.0751 116.274 76.0545C121.027 73.0297 124.65 68.6767 127.17 63.1114ZM112.002 21.3415L112.007 21.3484C114.939 25.2386 116.582 31.0828 116.582 39.2285V44.487C116.486 52.4283 114.835 58.1545 111.958 61.9926C109.162 65.6912 105.251 67.5879 99.8926 67.5879C94.6293 67.5879 90.6551 65.6095 87.6981 61.625C84.6999 57.5087 83.0566 51.6645 83.0566 43.8184V38.6094C83.1524 30.924 84.8247 25.2674 87.777 21.3493C90.6982 17.483 94.6138 15.5566 99.7949 15.5566C105.165 15.5566 109.13 17.5021 112.002 21.3415ZM185.752 21.3415L185.757 21.3484C188.689 25.2386 190.332 31.0828 190.332 39.2285V44.4876C190.236 52.4277 188.585 58.1534 185.709 61.9914C182.912 65.6908 179.002 67.5879 173.643 67.5879C168.379 67.5879 164.405 65.6095 161.448 61.625C158.45 57.5087 156.807 51.6645 156.807 43.8184V38.6094C156.902 30.9248 158.574 25.2687 161.526 21.3506C164.447 17.4834 168.363 15.5566 173.545 15.5566C178.915 15.5566 182.88 17.5021 185.752 21.3415ZM268.059 79.5703H272.859C275.897 79.5703 278.359 77.1079 278.359 74.0703V8.97656C278.359 5.939 275.897 3.47656 272.859 3.47656H269.533C266.496 3.47656 264.033 5.939 264.033 8.97656V50.914C264.033 51.0924 263.984 51.1751 263.946 51.2224C263.895 51.2864 263.804 51.3552 263.676 51.3933C263.547 51.4314 263.434 51.4235 263.356 51.3978C263.299 51.3787 263.212 51.3366 263.114 51.1872L233.626 5.97209C232.611 4.41528 230.878 3.47656 229.019 3.47656H224.221C221.183 3.47656 218.721 5.939 218.721 8.97656V74.0703C218.721 77.1079 221.183 79.5703 224.221 79.5703H227.645C230.682 79.5703 233.145 77.1079 233.145 74.0703V32.3624C233.145 32.1842 233.194 32.1015 233.232 32.0541C233.283 31.9901 233.374 31.9213 233.502 31.8832C233.63 31.8451 233.744 31.8529 233.821 31.8786C233.879 31.8976 233.966 31.9398 234.063 32.089L263.455 77.0784C264.47 78.6331 266.202 79.5703 268.059 79.5703Z" stroke="#FF7D7D" stroke-width="5"/>
</svg>
