<?xml version="1.0" encoding="utf-8"?>
<svg width="31px" height="31px" viewbox="0 0 31 31" version="1.1" xmlns:xlink="http://www.w3.org/1999/xlink" xmlns="http://www.w3.org/2000/svg">
  <defs>
    <path d="M0 0L31 0L31 31L0 31L0 0Z" id="path_1" />
    <clipPath id="mask_1">
      <use xlink:href="#path_1" />
    </clipPath>
  </defs>
  <g id="Twitter-icon">
    <path d="M0 0L31 0L31 31L0 31L0 0Z" id="Background" fill="none" fill-rule="evenodd" stroke="none" />
    <g clip-path="url(#mask_1)">
      <path d="M31 2.97184C29.8395 3.48649 28.674 3.875 27.3823 4.00619C28.674 3.22917 29.7083 1.9375 30.223 0.514649C28.9313 1.29167 27.6396 1.80632 26.2218 2.06869C24.9302 0.777019 23.25 0 21.4437 0C17.9522 0 15.1115 2.84066 15.1115 6.32715C15.1115 6.84684 15.1115 7.36149 15.2427 7.75C9.94483 7.49268 5.29785 5.03548 2.19482 1.16048C1.54899 2.06869 1.29167 3.22917 1.29167 4.38965C1.29167 6.58952 2.45215 8.52702 4.13232 9.6875C3.09798 9.55632 2.06869 9.29899 1.29167 8.91049C1.29167 8.91049 1.29167 8.91049 1.29167 9.04167C1.29167 12.1397 3.48649 14.723 6.32715 15.2427C5.8125 15.3688 5.29785 15.5 4.65202 15.5C4.26351 15.5 3.875 15.5 3.48649 15.3688C4.26351 17.9522 6.58952 19.7635 9.43018 19.7635C7.23535 21.4437 4.52083 22.473 1.54899 22.473C1.03434 22.473 0.514649 22.473 0 22.3468C2.84066 24.1532 6.20101 25.1875 9.6875 25.1875C21.4437 25.1875 27.7708 15.5 27.7708 7.10417C27.7708 6.84684 27.7708 6.58952 27.7708 6.32715C29.0625 5.42399 30.0968 4.26351 31 2.97184" transform="translate(0 2.5833282)" id="Shape" fill="#141CFC" fill-rule="evenodd" stroke="none" />
    </g>
  </g>
</svg>